<?xml version="1.0" encoding="utf-8"?>
<svg version="1.1" id="aa" xmlns="http://www.w3.org/2000/svg" xmlns:xlink="http://www.w3.org/1999/xlink" x="0px" y="0px"
	 width="100px" height="80px" viewBox="0 0 100 80" style="enable-background:new 0 0 100 80;" xml:space="preserve">
<path fill="#111111" d="M71.9,32.9c0-0.3-0.1-0.6-0.1-0.7c0-0.1,0-0.4-0.1-0.6c0-0.2-0.1-0.5-0.1-0.7c-0.1-0.7-0.4-1.9-0.5-2.2
	c0-0.1-0.1-0.4-0.2-0.7c-0.5-1.5-1.5-3.5-2.5-5.1c-1.7-2.6-4.2-5-6.8-6.6c-0.1,0-0.2-0.1-0.3-0.2c-0.3-0.2-0.4-0.2-1.2-0.6
	c-0.6-0.3-1.1-0.5-2.2-1c-0.4-0.1-1.4-0.5-1.7-0.6c-0.1,0-0.4-0.1-0.6-0.2c-0.2-0.1-0.5-0.1-0.6-0.2c-0.9-0.2-1.5-0.3-2-0.3
	c-0.3,0-0.7-0.1-0.8-0.1c-0.4-0.1-4-0.1-4.4,0c-0.2,0-0.5,0.1-0.6,0.1c-0.4,0-2.1,0.3-2.9,0.6c-1.2,0.3-1.7,0.5-2,0.7
	c-0.1,0-0.2,0.1-0.2,0.1c0,0-0.2,0.1-0.4,0.2c-0.2,0.1-0.4,0.2-0.4,0.2c-0.1,0-2,1-2.1,1.1c-0.1,0.1-0.2,0.2-0.4,0.3
	c-0.1,0.1-0.5,0.3-1.2,0.8c-1.2,0.8-2.9,2.4-4,3.6c-0.7,0.8-1.3,1.6-1.3,1.7c0,0,0,0.1-0.1,0.1c-0.1,0-1,1.4-1.4,2.1
	c-0.7,1.3-1.4,2.9-1.6,3.7c0,0.1-0.1,0.2-0.1,0.2c0,0.1-0.1,0.3-0.3,0.9c0,0.2-0.1,0.6-0.2,0.9c-0.1,0.3-0.2,0.7-0.2,0.9
	c0,0.2-0.1,0.5-0.1,0.6c0,0.1,0,0.4-0.1,0.6c-0.1,0.5-0.2,2-0.2,2.7c0,0.6,0.1,2.1,0.2,2.7c0,0.3,0.1,0.6,0.1,0.7
	c0,0.2,0.2,0.9,0.3,1.6c0.1,0.3,0.1,0.6,0.2,0.7c0,0.1,0.1,0.3,0.1,0.3c0,0,0.1,0.1,0.1,0.2c0,0.1,0,0.2,0.1,0.3
	c0,0.1,0.1,0.4,0.2,0.6c0.1,0.4,0.3,1,0.5,1.3c0,0.1,0.1,0.3,0.2,0.4c0.2,0.5,0.8,1.7,1.1,2.2c0.2,0.3,0.3,0.6,0.3,0.6
	c0,0,0,0.1,0.1,0.1c0,0,0.2,0.3,0.3,0.5c0.3,0.4,1.2,1.7,1.3,1.8c0,0,0.2,0.2,0.3,0.4c0.5,0.7,1.5,1.7,2.4,2.4c0.7,0.6,2,1.6,2.7,2
	c0,0,0.2,0.1,0.3,0.2c0.2,0.1,1.1,0.6,1.6,0.8c0.4,0.2,1.3,0.6,1.6,0.7c0.5,0.2,0.6,0.2,1.2,0.4c0.3,0.1,0.6,0.2,0.7,0.3
	c0.1,0,0.2,0.1,0.3,0.1s0.2,0,0.3,0.1c0.3,0.1,1.5,0.3,2.5,0.5c0.8,0.1,1.6,0.2,2.9,0.2c1.9,0,2.6-0.1,4.8-0.5
	c0.2,0,0.6-0.1,0.7-0.2c0.6-0.2,0.9-0.3,1.1-0.3c0.1,0,0.2-0.1,0.3-0.1c0.3-0.1,1.2-0.4,1.4-0.5c0.2-0.1,0.3-0.1,0.3-0.1
	c0,0,0.9-0.4,1.3-0.6c0.1,0,0.2-0.1,0.3-0.2c0,0,0.1-0.1,0.1-0.1c0,0,1-0.5,1.3-0.7c0,0,0.2-0.1,0.4-0.3c0.3-0.2,1.8-1.3,1.9-1.4
	c0,0,0.2-0.2,0.5-0.4c0.6-0.5,1.3-1.2,1.9-1.9c0.6-0.6,1.8-2.2,2-2.7c0.1-0.1,0.3-0.5,0.5-0.8c0.2-0.3,0.4-0.7,0.5-0.9
	c0.1-0.1,0.1-0.3,0.2-0.3c0-0.1,0.5-1,0.6-1.4c0.3-0.6,0.3-0.7,0.6-1.5c0.1-0.3,0.2-0.7,0.3-0.7c0-0.1,0.1-0.2,0.1-0.3
	c0-0.1,0.1-0.4,0.2-0.6c0.2-0.7,0.5-2.2,0.6-3.3C72,36.1,72,33.7,71.9,32.9z M69.6,37.5c0,0.2-0.1,0.5-0.1,0.7
	c0,0.2-0.1,0.4-0.1,0.6c0,0.1-0.1,0.6-0.2,1c-0.1,0.4-0.2,0.8-0.2,0.9c0,0.1-0.1,0.2-0.1,0.3s0,0.2-0.1,0.2c0,0.1-0.1,0.2-0.1,0.2
	c0,0,0,0.2-0.1,0.3c-0.2,0.4-0.2,0.6-0.3,0.7c-0.1,0.2-0.9,2-1.1,2.3c0,0-0.2,0.4-0.5,0.8c-0.4,0.7-0.9,1.5-1.2,1.8
	c-0.1,0.1-0.3,0.4-0.5,0.7c-0.5,0.6-1.5,1.7-2.2,2.2c-0.4,0.4-1,0.8-1.9,1.4c-0.4,0.3-1.2,0.7-2,1.2c-0.5,0.2-2.3,1-2.4,1
	c0,0-0.2,0-0.2,0.1c-0.2,0.1-1.1,0.3-1.9,0.5c-1.8,0.4-2.5,0.4-4.6,0.4c-1.6,0-2.2-0.1-3-0.2c-0.2,0-0.4-0.1-0.6-0.1
	c-0.3,0-0.9-0.2-1.5-0.3c-0.2-0.1-0.5-0.1-0.6-0.2c-0.3-0.1-0.9-0.3-1.2-0.4c-0.1,0-0.3-0.1-0.5-0.2c-0.4-0.1-0.9-0.4-1.1-0.5
	c0,0-0.4-0.2-0.7-0.4c-0.6-0.3-0.7-0.4-1-0.6c-0.9-0.6-1.2-0.7-1.4-1c-0.2-0.1-0.4-0.3-0.4-0.3c-0.7-0.5-2.4-2.2-3-2.9
	c-0.2-0.3-0.4-0.5-0.4-0.5c0,0-0.3-0.4-0.8-1.2c-0.3-0.4-0.6-1-0.9-1.4c-0.3-0.6-1-2-1-2.1c0,0-0.1-0.2-0.1-0.4
	c-0.1-0.2-0.2-0.4-0.2-0.5c0-0.1-0.1-0.4-0.2-0.6c-0.2-0.6-0.3-0.8-0.4-1.3c-0.1-0.2-0.1-0.5-0.2-0.7c0-0.1-0.1-0.3-0.1-0.4
	s0-0.3-0.1-0.5c-0.4-1.6-0.4-4.9,0-6.6c0-0.2,0.1-0.4,0.1-0.5c0-0.1,0-0.2,0.1-0.4s0.1-0.5,0.2-0.7c0.3-1.3,1-2.9,1.6-4
	c0.1-0.2,0.2-0.4,0.2-0.4c0,0,0.4-0.6,0.7-1c1-1.3,2.1-2.3,3.3-3.1c0.8-0.5,1.7-0.9,2.5-1.1c0.2-0.1,0.5-0.1,0.6-0.2
	c0.2,0,0.4-0.1,0.4-0.1c0.1,0,0.3,0,0.5-0.1c0.5-0.1,2-0.1,2.6,0c0.6,0.1,1,0.2,1.4,0.4c0.8,0.3,1.7,1,2.1,1.6
	c0.1,0.2,0.3,0.4,0.3,0.4c0.3,0.3,0.4,0.3,2.8,0.3c2.6,0,2.5,0,3.1-0.6c0.2-0.2,0.5-0.5,0.6-0.6c0.2-0.2,1.1-0.8,1.2-0.8
	c0,0,0.2-0.1,0.4-0.2c0.2-0.1,0.5-0.2,0.6-0.2c0.2,0,0.4-0.1,0.5-0.1c0.1,0,0.3-0.1,0.5-0.1c0.2,0,0.5-0.1,0.7-0.1
	c1.1-0.2,3.1,0.1,4.3,0.5c1.4,0.5,2.5,1.3,3.6,2.4c0.5,0.5,1.4,1.7,1.6,2.1c0.1,0.1,0.1,0.2,0.2,0.3c0,0,0.2,0.3,0.3,0.6
	c0.1,0.3,0.3,0.6,0.3,0.6c0.2,0.4,0.8,1.9,0.9,2.3c0,0.1,0.1,0.2,0.1,0.3c0.1,0.1,0.3,1.2,0.5,1.9C69.8,33.1,69.9,35.7,69.6,37.5z
	 M62.3,43.4c1,1.9,1,1.9,0.8,2.1C63,45.6,63,45.6,60,45.6l-3,0l-0.1-0.1c-0.1-0.1-0.2-0.2-1.4-2.9c-0.2-0.3-0.5-0.9-0.6-1.3
	c-0.2-0.4-0.5-1-0.7-1.4c-0.2-0.4-0.4-0.9-0.5-1.1c-0.1-0.2-0.4-0.9-0.7-1.5c-1.9-3.9-2-4.2-2.4-4.3c-0.2-0.1-0.7-0.1-0.9,0
	c-0.3,0.1-0.4,0.3-1,1.5c-0.6,1.4-0.8,1.7-1.4,2.9c-1,2-2.6,5.4-3.5,7.2c-0.2,0.5-0.5,0.9-0.5,1c-0.1,0.1-0.4,0.1-3.1,0.1l-3,0
	l-0.1-0.1c-0.2-0.2-0.1-0.3,0.5-1.4c0.1-0.2,0.3-0.6,0.5-0.9c0.2-0.3,0.4-0.7,0.5-0.9c0.1-0.2,0.3-0.6,0.5-0.9
	c0.2-0.3,0.5-0.9,0.6-1.2c0.2-0.3,0.4-0.8,0.5-0.9c0.1-0.2,0.3-0.5,0.4-0.8c0.2-0.4,0.7-1.3,1.1-2.1c0.1-0.2,0.3-0.5,0.4-0.7
	c0.2-0.5,0.5-0.9,1.2-2.2c0.2-0.4,0.5-0.9,0.6-1.1c0.1-0.2,0.3-0.5,0.3-0.6c0.4-0.8,1-1.9,1.2-2.4c0.5-0.9,0.6-1.1,1-2
	c0.5-0.9,0.8-1.4,0.9-1.6c0-0.1,0.2-0.2,0.4-0.2l0.3-0.1l2.1,0h2.1l0.3,0.1c0.4,0.2,0.5,0.4,1.2,1.7c0.2,0.4,0.5,0.9,0.6,1.2
	c0.2,0.3,0.4,0.8,0.6,1.1c0.1,0.3,0.4,0.8,0.6,1.1c0.2,0.3,0.4,0.8,0.6,1.1c0.1,0.3,0.3,0.6,0.4,0.8s0.4,0.7,0.6,1.1
	c0.2,0.4,0.5,0.9,0.6,1.2c0.1,0.2,0.4,0.7,0.5,1c0.2,0.3,0.4,0.8,0.5,1c0.2,0.4,0.4,0.7,1,1.9c0.4,0.7,1,2,1.2,2.4
	c0.1,0.2,0.3,0.5,0.4,0.8c0.1,0.2,0.3,0.6,0.4,0.8C61.9,42.5,62.1,43,62.3,43.4z M29.7,65.7c-0.3,0.3-0.5,0.4-0.9,0.5
	c-0.4,0.1-1.2,0.1-1.5,0c-0.1,0-0.2-0.1-0.3-0.1s-0.2,0-0.3-0.1c-0.1,0-0.3-0.1-0.5-0.2c-0.1-0.1-0.3-0.1-0.3-0.2c0,0,0-0.2,0.1-0.4
	c0.1-0.2,0.2-0.4,0.2-0.6c0-0.1,0.1-0.3,0.1-0.3s0.2,0.1,0.3,0.2c0.3,0.2,0.6,0.3,1.1,0.4c0.5,0.1,1-0.2,1-0.6c0-0.1,0-0.2,0-0.3
	c0-0.1-0.5-0.4-0.6-0.4c-0.2,0-0.8-0.3-1.2-0.4c-0.3-0.1-0.7-0.5-0.8-0.9c-0.2-0.5-0.1-1.3,0.2-1.7c0.2-0.3,0.7-0.6,1.2-0.7
	c0.3-0.1,0.6-0.1,0.8-0.1c0.3,0,1.3,0.2,1.4,0.3c0.1,0,0,0.2-0.1,0.5c-0.1,0.1-0.1,0.3-0.2,0.5c-0.1,0.2-0.1,0.3-0.2,0.2
	c-0.1,0-0.2-0.1-0.2-0.1c0,0-0.2-0.1-0.4-0.2c-0.3-0.1-0.6-0.1-0.9,0.1c-0.2,0.1-0.3,0.3-0.2,0.6c0,0.2,0.3,0.4,1.2,0.7
	c0.5,0.2,0.9,0.4,1.1,0.6C30.4,63.9,30.4,65.1,29.7,65.7z M85.6,60.9c-0.7-0.7-2.1-1.1-3.2-0.8c-0.6,0.2-1.1,0.4-1.5,0.8
	c-0.2,0.2-0.4,0.4-0.5,0.5c-0.2,0.4-0.3,0.6-0.3,0.9c-0.2,1,0,2.2,0.7,2.9c0.3,0.3,0.8,0.7,1,0.7c0,0,0.1,0,0.1,0.1s0.1,0.1,0.2,0.1
	c0.1,0,0.2,0,0.3,0.1c0.1,0.1,0.4,0.1,0.9,0.1c0.6,0,1-0.1,1.4-0.3c0.1,0,0.2-0.1,0.2-0.1c0.1,0,0.5-0.3,0.7-0.4
	c0.2-0.2,0.6-0.7,0.7-1c0.2-0.4,0.3-0.8,0.3-1.4C86.5,62.2,86.3,61.6,85.6,60.9z M84.4,64.6c-0.4,0.4-0.7,0.5-1.2,0.5
	c-0.4,0-0.5,0-0.7-0.2c-0.4-0.2-0.6-0.4-0.8-0.8c-0.1-0.3-0.2-0.4-0.2-0.9c0-0.5,0-0.6,0.1-0.8c0.4-0.8,1.3-1.2,2.1-0.9
	c0.4,0.1,0.8,0.6,1,1C85.1,63.2,84.9,64.1,84.4,64.6z M19.9,66.2c0,0.1-1.1,0.1-1.6,0c0,0-0.1-0.1-0.1-0.2c0-0.1-0.1-0.2-0.1-0.3
	c0-0.1-0.1-0.4-0.2-0.6c-0.1-0.2-0.2-0.6-0.3-0.8c-0.1-0.2-0.1-0.4-0.2-0.4c0-0.1-0.1-0.2-0.1-0.3c0-0.1-0.1-0.3-0.2-0.5
	c-0.1-0.2-0.1-0.4-0.1-0.5c0-0.1-0.1-0.2-0.1-0.2c-0.2-0.2-0.3-0.1-0.5,0.2c-0.1,0.2-0.1,0.4-0.2,0.5c0,0.1-0.1,0.4-0.2,0.6
	C16,63.8,15.9,64,15.9,64c0,0,0,0.1,0,0.1c0,0.1,0,0.2-0.1,0.3c0,0.1-0.1,0.3-0.1,0.3c-0.1,0.2-0.4,1.1-0.4,1.2c0,0.1,0,0.1-0.1,0.1
	c0,0-0.4,0-0.8,0c-0.9,0-0.9,0-0.6-0.4c0.1-0.1,0.2-0.4,0.3-0.6c0.1-0.2,0.2-0.4,0.2-0.5c0-0.1,0.1-0.2,0.1-0.3
	c0-0.1,0.1-0.3,0.1-0.3c0-0.1,0.1-0.3,0.2-0.5c0.1-0.2,0.2-0.4,0.2-0.5c0-0.1,0.1-0.2,0.1-0.3c0-0.1,0.1-0.3,0.2-0.4
	c0.2-0.4,0.2-0.6,0.4-1c0.1-0.2,0.2-0.5,0.3-0.6c0-0.1,0.1-0.2,0.1-0.2c0-0.1,0.2-0.4,0.3-0.4c0.1,0,0.3,0,0.6,0
	c0.5,0,0.5,0,0.7,0.2c0.1,0.1,0.2,0.4,0.3,0.7c0.1,0.3,0.2,0.6,0.3,0.7c0,0.1,0.1,0.1,0.1,0.2c0,0,0.1,0.2,0.2,0.4
	c0.1,0.2,0.2,0.4,0.2,0.4c0,0,0,0.1,0.1,0.3c0.1,0.1,0.1,0.3,0.2,0.4c0,0.1,0.1,0.2,0.1,0.3c0,0.1,0.1,0.3,0.2,0.4
	c0,0.1,0.1,0.3,0.2,0.5c0.1,0.2,0.1,0.4,0.2,0.4c0,0,0,0.1,0,0.1C19.5,65.2,19.9,66,19.9,66.2C20,66.1,20,66.1,19.9,66.2z
	 M55.5,60.2v3v3l-0.9,0c-0.7,0-0.9,0-0.9-0.1c-0.1-0.2-0.5-0.8-0.6-0.9c-0.1-0.1-0.1-0.2-0.1-0.2s-0.1-0.2-0.2-0.3
	c-0.1-0.1-0.2-0.3-0.3-0.5c-0.1-0.1-0.3-0.4-0.4-0.7c-0.2-0.3-0.3-0.6-0.4-0.7c-0.1-0.1-0.2-0.3-0.2-0.4c-0.1-0.1-0.1-0.1-0.1,0
	c0,0.1,0.1,3.2,0.1,3.7c0,0.1,0,0.1-0.7,0.1l-0.7,0v-3c0-1.6,0-3,0-3s0.4,0,0.8,0c0.6,0,0.8,0,0.9,0.1c0,0,0.1,0.1,0.1,0.1
	c0,0,0.1,0.2,0.2,0.3c0.1,0.1,0.2,0.3,0.2,0.3c0,0,0.1,0.1,0.1,0.2c0.1,0.1,0.4,0.6,0.5,0.9c0,0.1,0.2,0.3,0.4,0.6
	c0.2,0.3,0.4,0.7,0.5,0.8c0.2,0.3,0.4,0.5,0.4,0.4c0,0,0-0.4,0-0.8c0-0.4-0.1-1.3-0.1-1.9l0-1.1l0.7,0L55.5,60.2z M65,66.2
	c0,0-0.3,0.1-0.8,0.1l-0.8,0l-0.1-0.2c0-0.1-0.1-0.2-0.1-0.3c0-0.1,0-0.1,0-0.1c0,0-0.1-0.2-0.2-0.5c-0.1-0.4-0.2-0.6-0.4-1.2
	c-0.1-0.2-0.2-0.6-0.3-0.9c-0.2-0.7-0.3-0.8-0.4-0.9c-0.2-0.1-0.3,0.1-0.4,0.4c-0.1,0.2-0.2,0.5-0.2,0.7c-0.1,0.2-0.1,0.4-0.1,0.4
	c0,0.1-0.1,0.2-0.1,0.3c0,0.1-0.2,0.4-0.3,0.7c-0.2,0.6-0.3,0.9-0.4,1.1c0,0.1-0.1,0.2-0.1,0.3c0,0.1,0.1,0.1-0.9,0.1
	c-0.6,0-0.8,0-0.8,0c0,0,0.1-0.3,0.2-0.5c0.1-0.2,0.2-0.5,0.3-0.6c0-0.1,0.1-0.4,0.3-0.7c0-0.1,0.1-0.3,0.2-0.4
	c0-0.1,0.1-0.2,0.1-0.3c0-0.1,0.2-0.4,0.3-0.7c0.1-0.3,0.2-0.6,0.3-0.6c0,0,0.1-0.2,0.1-0.3c0.1-0.1,0.1-0.3,0.2-0.4
	c0-0.1,0.2-0.4,0.3-0.7c0.2-0.6,0.3-0.7,0.5-0.8c0.1,0,0.4,0,0.6,0l0.5,0l0.2,0.2c0.1,0.1,0.2,0.2,0.2,0.3c0,0.1,0.2,0.4,0.4,1.1
	c0,0.1,0.1,0.3,0.2,0.4c0.2,0.5,0.5,1.1,0.5,1.2c0,0,0.1,0.2,0.1,0.3c0.2,0.5,0.6,1.5,0.6,1.5c0,0,0.1,0.3,0.2,0.5
	C64.9,65.9,65,66.1,65,66.2z M25.2,60.2l0,2.2l0,2.2L25,65c-0.3,0.6-0.6,0.8-1.5,1.2c-0.1,0.1-0.4,0.1-0.8,0.1
	c-0.6,0-1.1-0.1-1.6-0.4c-0.5-0.3-0.9-0.9-1-1.6c-0.1-0.5-0.1-4,0-4.1c0,0,0.3,0,0.7,0l0.7,0l0,1.8c0,2.2,0,2.3,0.4,2.7l0.3,0.2h0.4
	c0.4,0,0.5,0,0.6-0.1c0.5-0.4,0.5-0.5,0.5-2.8l0-1.9l0.7,0L25.2,60.2z M35.1,61.5c-0.1,0-0.4,0-0.8,0c-0.8,0-0.9,0-0.9,0.3
	c0,0.1,0,1.2,0,2.3l0,2.1h-0.7H32l0-2.1c0-1.2,0-2.2,0-2.3c0-0.3,0-0.3-0.9-0.3c-0.4,0-0.8,0-0.8,0c-0.1,0-0.1-0.2-0.1-0.7v-0.6
	l2.4,0l2.4,0l0,0.6C35.2,61.4,35.2,61.4,35.1,61.5z M40.6,65.9c-0.1-0.2-0.5-0.7-1-1.6c-0.1-0.2-0.3-0.4-0.3-0.5
	c-0.1-0.1-0.1-0.3,0-0.3c0.5-0.2,0.9-0.5,1-1c0.3-0.8,0-1.7-0.7-2c-0.5-0.3-1-0.3-2.5-0.3h-1.3l0,2.9c0,1.6,0,2.9,0,3
	c0,0.1,0.1,0.1,0.7,0.1h0.7l0-1c0-0.5,0-1.1,0-1.2c0-0.2,0-0.2,0.3-0.2l0.3,0l0.2,0.4c0.1,0.2,0.3,0.6,0.4,0.8
	c0.1,0.2,0.3,0.6,0.4,0.8l0.2,0.3h0.7c0.4,0,0.7,0,0.8,0c0.1,0,0.2,0,0.2,0C40.8,66.2,40.7,66.1,40.6,65.9z M39,62.1
	c0,0.4-0.3,0.6-1.1,0.7c-0.4,0-0.5,0-0.6,0c0-0.1-0.1-1.3,0-1.4c0,0,0.3,0,0.6,0c0.4,0,0.6,0,0.8,0.1C38.9,61.7,39,61.8,39,62.1z
	 M42.8,60.2v3v3l-0.8,0c-0.6,0-0.8,0-0.8-0.1c0,0,0-1.4,0-3l0-2.9h0.7H42.8z M49.7,66.2c0,0-0.4,0-0.8,0l-0.8,0L48,65.9
	c0-0.1-0.1-0.3-0.1-0.4c0-0.1-0.1-0.2-0.1-0.2c0-0.1,0-0.1-0.1-0.2c0-0.1-0.1-0.2-0.1-0.2s0-0.1,0-0.2c0,0-0.1-0.2-0.2-0.5
	c-0.1-0.2-0.2-0.6-0.3-0.7c-0.1-0.2-0.1-0.4-0.2-0.5c0-0.1-0.1-0.2-0.1-0.3c0-0.1-0.1-0.2-0.1-0.3c0-0.2-0.2-0.3-0.4-0.2
	c-0.1,0-0.1,0.1-0.1,0.2c0,0,0,0.2-0.1,0.3c0,0.1-0.1,0.2-0.1,0.3c0,0.1-0.1,0.3-0.2,0.6c-0.1,0.3-0.2,0.6-0.2,0.7
	c-0.1,0.3-0.2,0.6-0.4,1c-0.1,0.2-0.2,0.5-0.2,0.6l-0.1,0.3l-0.7,0c-0.4,0-0.8,0-0.8,0c-0.1,0-0.1,0,0-0.3c0.1-0.1,0.2-0.4,0.3-0.5
	c0.1-0.2,0.2-0.4,0.2-0.5c0.4-0.9,1.2-2.9,1.2-3c0,0,0.1-0.2,0.2-0.4c0.1-0.2,0.2-0.4,0.2-0.4c0-0.1,0.3-0.7,0.4-0.8
	c0.1-0.1,0.2-0.1,0.7-0.1c0.4,0,0.6,0,0.7,0.1c0.1,0,0.2,0.2,0.3,0.5c0.1,0.4,0.2,0.5,0.4,0.9c0,0.1,0.2,0.4,0.3,0.6
	c0.2,0.4,0.2,0.5,0.4,1c0,0.1,0.2,0.4,0.3,0.7c0.1,0.3,0.2,0.6,0.3,0.6c0,0.1,0.1,0.2,0.1,0.3c0,0.1,0.2,0.4,0.3,0.7
	C49.6,65.9,49.7,66.1,49.7,66.2z M70.3,60.2l0,2.1l0,2.1l-0.2,0.4c-0.3,0.6-0.7,1.1-1.6,1.4c-0.2,0.1-0.4,0.1-0.8,0.1
	c-0.6,0-0.8,0-1.4-0.3c-0.3-0.1-0.8-0.6-0.9-0.9c-0.3-0.5-0.3-0.7-0.3-2.9v-2h0.7h0.7v2c0,2.3,0,2.3,0.4,2.6
	c0.2,0.2,0.3,0.2,0.6,0.2c0.4,0,0.6-0.1,0.8-0.3c0.3-0.3,0.3-0.3,0.3-2.5v-2h0.7H70.3z M76.7,62.2c-0.4-1-1.2-1.7-2.4-1.8
	c-0.6-0.1-2.9-0.1-3,0c0,0,0,1.4,0,3l0,2.9l1.5,0c1.7,0,1.8,0,2.5-0.3c0.6-0.3,1.2-0.9,1.4-1.6C76.9,63.8,76.9,62.6,76.7,62.2z
	 M75.2,64c-0.1,0.3-0.5,0.7-0.6,0.7c0,0-0.1,0-0.2,0.1C74.2,64.9,73.5,65,73,65l-0.4,0v-1.7c0-0.9,0-1.7,0-1.8c0,0,0.1-0.1,0.3,0
	c0.2,0,0.5,0,0.7,0.1c0.6,0,1,0.3,1.3,0.7C75.4,62.7,75.4,63.5,75.2,64z M79.2,66.1c0,0.1-0.2,0.1-0.8,0.1c-0.7,0-0.8,0-0.8-0.1
	c0,0,0-1.4,0-3l0-2.9h0.7h0.7l0,2.9C79.2,64.7,79.2,66.1,79.2,66.1z"/>
</svg>
